<svg xmlns="http://www.w3.org/2000/svg" viewBox="0 0 64 64" fill="none">
  <rect width="64" height="64" rx="14" fill="#020203"/>
  <!-- M -->
  <path d="M6 44V20h4l6 14 6-14h4v24h-4V28l-5 12h-2l-5-12v16H6z" fill="#FD9731"/>
  <!-- R -->
  <path d="M30 44V20h8c4.4 0 7 2.4 7 6.5 0 2.8-1.4 5-3.8 6L46 44h-4.5l-3.4-10H34v10H30zm4-13.5h3.8c2 0 3.2-1.1 3.2-3s-1.2-3-3.2-3H34v6z" fill="#FD9731"/>
  <!-- Poziomy bar - "FRIK" trademark element -->
  <rect x="6" y="47" width="52" height="2" rx="1" fill="#FD9731" opacity="0.5"/>
</svg>
