<svg width="88" height="88" viewBox="0 0 88 88" fill="none" xmlns="http://www.w3.org/2000/svg">
<path d="M44 6C23.0132 6 6 23.0132 6 44C6 64.9868 23.0132 82 44 82C64.9868 82 82 64.9868 82 44C82 23.0132 64.9868 6 44 6ZM44 13C61.1208 13 75 26.8792 75 44C75 61.1208 61.1208 75 44 75C26.8792 75 13 61.1208 13 44C13 26.8792 26.8792 13 44 13ZM43.6465 20.6465C43.2386 21.0545 43 21.6076 43 22.1858V46.4142L29.2929 60.1213C28.9024 60.5118 28.9024 61.145 29.2929 61.5355L31.4645 63.7071C31.8551 64.0976 32.4882 64.0976 32.8787 63.7071L47.7071 48.8787C47.8946 48.6911 48 48.4365 48 48.1716V22.1858C48 21.0812 47.1046 20.1858 46 20.1858H45.8142C45.2366 20.1858 44.683 20.4242 44.2751 20.8322L43.6465 20.6465Z" fill="#FF8D28"/>
</svg>
