<svg width="88" height="88" viewBox="0 0 88 88" fill="none" xmlns="http://www.w3.org/2000/svg">
<path d="M14 6C9.58172 6 6 9.58172 6 14V58C6 62.4183 9.58172 66 14 66H30L44 82L58 66H74C78.4183 66 82 62.4183 82 58V14C82 9.58172 78.4183 6 74 6H14ZM14 13H74C74.5523 13 75 13.4477 75 14V58C75 58.5523 74.5523 59 74 59H56.1L44 72.5L31.9 59H14C13.4477 59 13 58.5523 13 58V14C13 13.4477 13.4477 13 14 13ZM26 30C24.3431 30 23 31.3431 23 33C23 34.6569 24.3431 36 26 36C27.6569 36 29 34.6569 29 33C29 31.3431 27.6569 30 26 30ZM44 30C42.3431 30 41 31.3431 41 33C41 34.6569 42.3431 36 44 36C45.6569 36 47 34.6569 47 33C47 31.3431 45.6569 30 44 30ZM62 30C60.3431 30 59 31.3431 59 33C59 34.6569 60.3431 36 62 36C63.6569 36 65 34.6569 65 33C65 31.3431 63.6569 30 62 30Z" fill="#FF8D28"/>
</svg>
