<svg width="84" height="84" viewBox="0 0 84 84" fill="none" xmlns="http://www.w3.org/2000/svg">
<path d="M15.113 71.876C19.726 77 27.153 77 42 77C56.847 77 64.274 77 68.887 71.8725C73.5 66.752 73.5 58.499 73.5 42C73.5 25.501 73.5 17.2515 68.887 12.124C64.274 6.9965 56.847 7 42 7C27.153 7 19.726 7 15.113 12.124C10.5 17.255 10.5 25.501 10.5 42C10.5 58.499 10.5 66.752 15.113 71.876Z" stroke="#FF8D28" stroke-width="3.5"/>
<path d="M24.5 28C24.5 26.3725 24.5 25.5605 24.6785 24.892C24.9172 24.0025 25.3856 23.1915 26.0368 22.5403C26.688 21.8891 27.499 21.4207 28.3885 21.182C29.064 21 29.876 21 31.5 21H52.5C54.1275 21 54.9395 21 55.608 21.1785C56.4975 21.4172 57.3085 21.8856 57.9597 22.5368C58.6109 23.188 59.0793 23.999 59.318 24.8885C59.5 25.564 59.5 26.376 59.5 28C59.5 29.624 59.5 30.4395 59.3215 31.108C59.0828 31.9975 58.6144 32.8085 57.9632 33.4597C57.312 34.1109 56.501 34.5793 55.6115 34.818C54.9395 35 54.124 35 52.5 35H31.5C29.8725 35 29.0605 35 28.392 34.8215C27.5025 34.5828 26.6915 34.1144 26.0403 33.4632C25.3891 32.812 24.9207 32.001 24.682 31.1115C24.5 30.436 24.5 29.624 24.5 28Z" stroke="#FF8D28" stroke-width="3.5"/>
<path d="M28 49C29.933 49 31.5 47.433 31.5 45.5C31.5 43.567 29.933 42 28 42C26.067 42 24.5 43.567 24.5 45.5C24.5 47.433 26.067 49 28 49Z" fill="#FF8D28"/>
<path d="M28 63C29.933 63 31.5 61.433 31.5 59.5C31.5 57.567 29.933 56 28 56C26.067 56 24.5 57.567 24.5 59.5C24.5 61.433 26.067 63 28 63Z" fill="#FF8D28"/>
<path d="M42 49C43.933 49 45.5 47.433 45.5 45.5C45.5 43.567 43.933 42 42 42C40.067 42 38.5 43.567 38.5 45.5C38.5 47.433 40.067 49 42 49Z" fill="#FF8D28"/>
<path d="M42 63C43.933 63 45.5 61.433 45.5 59.5C45.5 57.567 43.933 56 42 56C40.067 56 38.5 57.567 38.5 59.5C38.5 61.433 40.067 63 42 63Z" fill="#FF8D28"/>
<path d="M56 49C57.933 49 59.5 47.433 59.5 45.5C59.5 43.567 57.933 42 56 42C54.067 42 52.5 43.567 52.5 45.5C52.5 47.433 54.067 49 56 49Z" fill="#FF8D28"/>
<path d="M56 63C57.933 63 59.5 61.433 59.5 59.5C59.5 57.567 57.933 56 56 56C54.067 56 52.5 57.567 52.5 59.5C52.5 61.433 54.067 63 56 63Z" fill="#FF8D28"/>
</svg>
