<svg width="74" height="74" viewBox="0 0 74 74" fill="none" xmlns="http://www.w3.org/2000/svg">
<path d="M9.96723 8.91415C10.5292 6.38605 11.9364 4.12512 13.9565 2.5045C15.9765 0.883879 18.4888 0.000444465 21.0786 3.50121e-08H52.9185C55.5088 -0.000203033 58.0218 0.882935 60.0424 2.50361C62.0631 4.12428 63.4707 6.38558 64.0328 8.91415L65.8458 17.0769H68.3077C69.0625 17.0769 69.7865 17.3768 70.3202 17.9105C70.854 18.4443 71.1538 19.1682 71.1538 19.9231C71.1538 20.6779 70.854 21.4019 70.3202 21.9356C69.7865 22.4694 69.0625 22.7692 68.3077 22.7692H67.1123L68.0515 26.9958C69.8514 27.9739 71.354 29.4195 72.4009 31.1803C73.4478 32.941 74.0002 34.9515 74 37V65.4615C74 67.7261 73.1004 69.8979 71.4991 71.4991C69.8979 73.1004 67.7261 74 65.4615 74H62.6154C60.3508 74 58.1791 73.1004 56.5778 71.4991C54.9765 69.8979 54.0769 67.7261 54.0769 65.4615V62.6154H19.9231V65.4615C19.9231 67.7261 19.0235 69.8979 17.4222 71.4991C15.8209 73.1004 13.6492 74 11.3846 74H8.53846C6.27392 74 4.10213 73.1004 2.50086 71.4991C0.899586 69.8979 7.96178e-08 67.7261 7.96178e-08 65.4615V37C-0.000242145 34.9515 0.552216 32.941 1.59913 31.1803C2.64604 29.4195 4.14863 27.9739 5.94846 26.9958L6.88769 22.7692H5.69231C4.93746 22.7692 4.21353 22.4694 3.67977 21.9356C3.14602 21.4019 2.84615 20.6779 2.84615 19.9231C2.84615 19.1682 3.14602 18.4443 3.67977 17.9105C4.21353 17.3768 4.93746 17.0769 5.69231 17.0769H8.15138L9.96723 8.91415ZM58.4771 10.1494C58.196 8.88486 57.492 7.75403 56.4813 6.94366C55.4707 6.1333 54.2139 5.69188 52.9185 5.69231H21.0815C19.7861 5.69188 18.5293 6.1333 17.5186 6.94366C16.508 7.75403 15.804 8.88486 15.5229 10.1494L12.0876 25.6154H61.9124L58.4771 10.1494ZM59.7692 62.6154V65.4615C59.7692 66.2164 60.0691 66.9403 60.6028 67.4741C61.1366 68.0078 61.8605 68.3077 62.6154 68.3077H65.4615C66.2164 68.3077 66.9403 68.0078 67.4741 67.4741C68.0078 66.9403 68.3077 66.2164 68.3077 65.4615V62.6154H59.7692ZM5.69231 62.6154V65.4615C5.69231 66.2164 5.99217 66.9403 6.52593 67.4741C7.05968 68.0078 7.78361 68.3077 8.53846 68.3077H11.3846C12.1395 68.3077 12.8634 68.0078 13.3971 67.4741C13.9309 66.9403 14.2308 66.2164 14.2308 65.4615V62.6154H5.69231ZM11.3846 31.3077C9.87492 31.3077 8.42706 31.9074 7.35955 32.9749C6.29203 34.0424 5.69231 35.4903 5.69231 37V56.9231H68.3077V37C68.3077 35.4903 67.708 34.0424 66.6404 32.9749C65.5729 31.9074 64.1251 31.3077 62.6154 31.3077H11.3846ZM29.8846 45.5385C29.1298 45.5385 28.4058 45.8383 27.8721 46.3721C27.3383 46.9058 27.0385 47.6298 27.0385 48.3846C27.0385 49.1395 27.3383 49.8634 27.8721 50.3972C28.4058 50.9309 29.1298 51.2308 29.8846 51.2308H44.1154C44.8702 51.2308 45.5942 50.9309 46.1279 50.3972C46.6617 49.8634 46.9615 49.1395 46.9615 48.3846C46.9615 47.6298 46.6617 46.9058 46.1279 46.3721C45.5942 45.8383 44.8702 45.5385 44.1154 45.5385H29.8846ZM22.7692 41.2692C22.7692 42.4015 22.3194 43.4874 21.5188 44.288C20.7182 45.0887 19.6323 45.5385 18.5 45.5385C17.3677 45.5385 16.2818 45.0887 15.4812 44.288C14.6806 43.4874 14.2308 42.4015 14.2308 41.2692C14.2308 40.137 14.6806 39.0511 15.4812 38.2504C16.2818 37.4498 17.3677 37 18.5 37C19.6323 37 20.7182 37.4498 21.5188 38.2504C22.3194 39.0511 22.7692 40.137 22.7692 41.2692ZM55.5 45.5385C56.6323 45.5385 57.7182 45.0887 58.5188 44.288C59.3194 43.4874 59.7692 42.4015 59.7692 41.2692C59.7692 40.137 59.3194 39.0511 58.5188 38.2504C57.7182 37.4498 56.6323 37 55.5 37C54.3677 37 53.2818 37.4498 52.4812 38.2504C51.6806 39.0511 51.2308 40.137 51.2308 41.2692C51.2308 42.4015 51.6806 43.4874 52.4812 44.288C53.2818 45.0887 54.3677 45.5385 55.5 45.5385Z" fill="#FF8D28"/>
</svg>
