<svg width="69" height="88" viewBox="0 0 69 88" fill="none" xmlns="http://www.w3.org/2000/svg">
<path d="M12.7176 88H56.2824C64.7748 88 69 83.6902 69 75.1529V37.8847C69 32.5889 68.4259 30.2913 65.1441 26.9254L42.4988 3.90002C39.3833 0.696995 36.8384 0 32.2036 0H12.7176C4.26721 0 0 4.35009 0 12.8892V75.1529C0 83.7305 4.26721 88 12.7176 88ZM13.0449 81.3926C8.81972 81.3926 6.60385 79.1335 6.60385 75.0303V13.0117C6.60385 8.94886 8.81972 6.60744 13.0869 6.60744H31.3005V30.4559C31.3005 35.6273 33.9259 38.1719 39.0123 38.1719H62.3962V75.0303C62.3962 79.1335 60.2205 81.3926 55.9551 81.3926H13.0449ZM39.7509 31.9725C38.1511 31.9725 37.493 31.3175 37.493 29.6748V7.8806L61.1219 31.9742L39.7509 31.9725Z" fill="#FF8D28"/>
</svg>
